<svg version="1.2" xmlns="http://www.w3.org/2000/svg" viewBox="0 0 62 62" width="62" height="62">
	<title>wordle-icon-svg</title>
	<style>
		.s0 { fill: #7fa768 } 
		.s1 { fill: #00baff } 
		.s2 { fill: #ffffff } 
		.s3 { fill: #00fff0 } 
		.s4 { fill: #000000 } 
	</style>
	<path class="s0" d="m41.8 21.1z"/>
	<path class="s1" d="m41.8 22.7v35.4h12.8c2 0 3.5-1.5 3.5-3.4v-14.4-17.6z"/>
	<path class="s2" d="m57.6 7.2v12.5l-15.8-0.1v-15.8h12.4c1.8 0 3.4 1.6 3.4 3.4z"/>
	<path class="s1" d="m39.6 40.8v17.3h-17.1v-17.4z"/>
	<path class="s3" d="m39.9 21.5l-0.1 18-17.9-0.1 0.1-17.9z"/>
	<path class="s2" d="m38.8 3.8v15.8h-15.8v-15.8z"/>
	<path class="s1" d="m21.2 40.6v17.6h-13.8c-2 0-3.7-1.7-3.7-3.8v-13.8z"/>
	<path class="s2" d="m20 22.7l-0.1 15.7h-15.9v-15.7z"/>
	<path class="s2" d="m20 3.8v15.8h-16v-12.4c0-1.8 1.6-3.4 3.4-3.4z"/>
	<path fill-rule="evenodd" class="s4" d="m60.5 7.4v46.7c0 3.5-2.8 6.4-6.4 6.4h-46.7c-3.5 0-6.4-2.9-6.4-6.4v-46.7c0-3.5 2.9-6.4 6.4-6.4h46.7c3.6 0 6.4 2.9 6.4 6.4zm-18.8 13.9zm-37.7 17.3h15.8l0.1-15.8h-15.9zm15.9 3h-15.9v12.5c0 1.9 1.5 3.4 3.4 3.4h12.5zm0-21.7v-15.9h-12.5c-1.9 0-3.4 1.6-3.4 3.4v12.5zm18.8 21.7h-15.8v16h15.8zm0-18.8l-15.8-0.1-0.1 15.8 15.8 0.1zm0.1-18.8h-15.9v15.7l15.8 0.1zm18.7 37.6h-15.8v15.9h12.5c1.8 0 3.3-1.5 3.3-3.4zm0-18.7l-15.8-0.1v15.8h15.8zm0-15.5c0-1.9-1.5-3.4-3.3-3.4h-12.4v15.8l15.7 0.1z"/>
</svg>